<svg xmlns="http://www.w3.org/2000/svg" viewBox="0 0 640 640" role="img" aria-labelledby="title desc">
  <title id="title">Jefferson County service area map graphic</title>
  <desc id="desc">Real Jefferson County, Kentucky outline map with Louisville-area care access cues.</desc>
  <path d="M96.0 513.0 L100.0 510.7 L102.2 508.1 L109.1 501.5 L113.7 495.5 L117.3 486.5 L119.3 475.1 L121.4 454.3 L122.2 449.9 L123.5 442.7 L125.0 441.2 L128.5 430.8 L129.6 427.7 L130.6 424.9 L131.4 413.5 L130.7 401.6 L129.9 395.5 L127.7 377.7 L127.4 366.6 L128.3 348.7 L131.7 335.3 L135.3 328.8 L139.1 321.7 L140.3 319.7 L151.2 304.6 L158.1 298.1 L163.2 294.0 L171.1 287.6 L174.3 285.1 L180.1 276.7 L180.9 275.5 L182.1 273.0 L185.3 266.4 L185.9 261.1 L186.7 255.6 L186.6 254.6 L186.5 246.1 L186.5 245.9 L187.3 241.5 L187.7 239.5 L189.4 235.9 L191.0 232.7 L193.4 227.7 L197.3 224.2 L198.0 223.9 L202.8 221.7 L203.2 221.6 L214.4 219.3 L215.6 219.0 L215.6 219.0 L219.8 218.1 L223.1 216.3 L224.9 215.9 L228.4 215.1 L233.2 215.2 L234.5 216.0 L236.2 217.2 L236.2 217.2 L240.5 218.2 L241.2 219.7 L245.7 223.7 L245.7 225.0 L244.7 226.9 L249.4 232.1 L249.8 232.5 L257.6 236.7 L257.9 236.7 L258.3 236.8 L262.9 237.5 L263.2 237.5 L263.3 237.5 L266.4 236.8 L270.9 234.1 L273.3 232.6 L286.9 224.2 L295.9 218.7 L296.3 218.5 L296.9 218.1 L300.7 215.8 L313.8 207.8 L319.2 203.0 L320.2 202.2 L322.0 200.6 L326.7 191.9 L327.5 190.7 L333.3 182.7 L333.7 182.1 L337.1 178.0 L338.1 175.7 L340.4 170.7 L340.7 169.8 L344.5 159.2 L345.6 156.3 L346.2 154.8 L346.2 154.7 L347.8 148.0 L350.8 135.8 L350.8 135.6 L351.1 124.7 L351.1 123.5 L351.1 123.1 L351.1 122.1 L351.5 118.7 L354.2 120.5 L357.3 122.7 L361.8 125.9 L368.7 130.8 L377.2 136.9 L383.8 141.7 L391.0 146.9 L391.6 147.3 L394.5 149.4 L398.9 152.5 L408.1 159.2 L400.7 159.9 L395.0 161.6 L403.7 167.3 L414.8 164.0 L415.9 164.8 L427.7 173.2 L427.9 173.3 L429.1 174.2 L443.1 184.2 L446.7 186.7 L453.4 191.5 L466.9 201.2 L471.7 204.6 L485.0 213.9 L491.7 218.5 L491.9 218.6 L521.2 231.3 L538.7 238.9 L544.0 241.2 L543.8 242.6 L542.0 257.2 L539.6 275.4 L537.8 289.5 L537.8 289.8 L535.9 304.1 L533.8 320.0 L528.2 363.4 L528.1 364.1 L525.2 386.1 L524.2 393.9 L481.7 413.3 L478.6 414.5 L452.3 425.1 L441.1 430.2 L428.4 436.0 L424.1 438.0 L423.5 438.3 L423.4 438.4 L418.1 440.8 L409.9 439.8 L397.3 438.4 L385.9 437.2 L368.8 435.3 L347.5 432.9 L347.3 432.9 L337.0 431.8 L327.6 430.8 L327.3 430.7 L327.1 430.7 L318.8 429.8 L315.7 429.5 L312.2 429.1 L300.7 427.8 L299.8 427.7 L299.5 427.7 L293.4 427.0 L289.8 426.6 L283.8 428.7 L282.1 429.3 L262.5 436.2 L203.6 456.9 L182.6 464.3 L169.1 469.0 L154.0 474.4 L149.1 475.8 L148.3 477.5 L148.6 478.9 L146.1 479.8 L144.2 481.2 L143.9 482.0 L139.7 484.6 L136.9 487.1 L134.6 487.5 L133.7 488.2 L132.4 487.4 L131.3 488.1 L131.5 489.9 L130.9 491.2 L129.6 491.9 L129.4 493.2 L130.7 494.9 L129.1 497.1 L129.1 494.7 L126.6 494.2 L127.3 497.1 L126.6 497.8 L124.4 496.7 L122.2 503.7 L123.2 505.1 L123.5 507.0 L122.2 508.4 L119.9 508.8 L118.5 507.5 L117.2 509.3 L115.9 509.6 L114.5 511.0 L114.1 512.6 L113.2 512.9 L110.2 515.9 L108.5 519.8 L106.3 521.3 L105.1 519.6 L103.3 519.7 L100.8 517.9 L99.6 517.1 L97.7 515.8 Z" fill="#d8e5ea" fill-rule="evenodd" stroke="#3d583c" stroke-width="10" stroke-linejoin="round"/>

  <path d="M208.0 368.3 C237.4 368.3, 237.4 326.4, 266.8 326.4" fill="none" stroke="#b85f32" stroke-width="12" stroke-linecap="round" stroke-dasharray="1 28" opacity="0.9"/>
  <circle cx="266.8" cy="326.4" r="44" fill="#fffaf3" stroke="#3d583c" stroke-width="7"/>
  <path d="M246.8 335.4h40v35h-40z" fill="#86a99a"/>
  <path d="M237.8 336.4l29-27 29 27" fill="none" stroke="#3d583c" stroke-width="7" stroke-linecap="round" stroke-linejoin="round"/>
  <circle cx="208.0" cy="368.3" r="15" fill="#b85f32"/>
  <circle cx="266.8" cy="326.4" r="12" fill="#b85f32"/>
  <text x="320" y="574" text-anchor="middle" font-family="system-ui, -apple-system, BlinkMacSystemFont, 'Segoe UI', sans-serif" font-size="24" font-weight="700" fill="#3d583c">Jefferson Co.</text>
</svg>
