<svg xmlns="http://www.w3.org/2000/svg" viewBox="0 0 640 640" role="img" aria-labelledby="title desc">
  <title id="title">Bullitt County service area map graphic</title>
  <desc id="desc">Real Bullitt County, Kentucky outline map with a route cue toward Louisville care.</desc>
  <path d="M98.0 279.1 L99.2 280.9 L101.6 279.3 L103.4 275.2 L106.6 271.9 L107.5 271.7 L107.9 270.0 L109.5 268.5 L110.8 268.1 L112.2 266.3 L113.7 267.6 L116.1 267.2 L117.5 265.7 L117.2 263.7 L116.2 262.2 L118.5 254.8 L120.9 256.0 L121.6 255.2 L120.8 252.1 L123.5 252.7 L123.5 255.2 L125.2 252.9 L123.8 251.0 L124.1 249.7 L125.4 248.9 L126.1 247.5 L125.8 245.6 L127.0 244.9 L128.4 245.8 L129.3 245.1 L131.8 244.7 L134.7 242.0 L139.2 239.2 L139.5 238.3 L141.6 236.9 L144.2 235.9 L144.0 234.4 L144.8 232.6 L149.9 231.2 L166.1 225.4 L180.5 220.4 L202.7 212.6 L265.4 190.7 L286.3 183.4 L288.2 182.7 L294.5 180.5 L298.3 180.9 L304.8 181.6 L305.2 181.6 L306.2 181.7 L318.3 183.1 L322.1 183.5 L325.3 183.8 L334.2 184.8 L334.4 184.8 L334.8 184.9 L344.7 186.0 L355.7 187.2 L355.9 187.2 L378.6 189.7 L396.8 191.6 L409.0 192.9 L422.4 194.5 L431.1 195.5 L436.7 192.9 L436.8 192.8 L437.4 192.6 L442.0 190.5 L455.5 184.3 L467.4 178.8 L495.4 167.6 L498.8 166.3 L544.0 145.8 L542.6 158.2 L542.4 158.5 L538.7 159.9 L537.6 161.0 L537.4 163.0 L535.9 164.2 L532.8 163.9 L528.0 164.6 L524.9 163.3 L523.7 163.7 L515.4 169.6 L514.1 170.9 L512.3 171.1 L508.5 170.5 L493.2 208.2 L470.9 263.4 L470.2 265.8 L466.6 265.2 L490.9 288.2 L468.7 304.0 L451.4 316.5 L452.9 316.6 L453.0 318.1 L456.9 319.5 L458.6 321.6 L460.3 325.5 L459.5 327.3 L459.2 330.5 L457.3 332.6 L455.1 336.6 L452.5 338.4 L451.5 340.2 L449.5 340.3 L447.9 342.3 L444.1 344.2 L442.6 346.1 L442.0 348.9 L440.0 352.4 L439.2 355.5 L438.3 355.8 L438.3 357.8 L437.2 359.3 L435.3 360.8 L433.7 360.8 L432.4 362.5 L428.0 363.6 L426.2 363.1 L424.0 361.5 L423.0 362.6 L423.7 366.8 L420.9 369.7 L417.4 371.4 L415.3 370.4 L412.8 373.1 L411.9 374.8 L409.1 377.1 L407.6 376.9 L407.6 378.4 L406.1 380.6 L406.3 382.1 L407.2 385.1 L406.8 388.0 L407.2 389.6 L406.7 394.4 L406.9 396.4 L410.1 404.1 L414.1 406.5 L413.2 408.1 L411.3 407.7 L410.0 410.4 L408.7 411.3 L405.7 415.1 L403.8 416.3 L400.0 415.9 L395.7 419.0 L394.6 420.3 L393.8 423.3 L392.1 423.1 L390.0 422.1 L388.7 422.2 L386.4 423.5 L381.8 422.7 L381.5 425.4 L383.8 428.4 L383.2 430.4 L384.5 435.1 L380.2 439.5 L378.7 442.4 L375.6 444.5 L374.3 444.2 L371.2 445.0 L370.0 444.9 L367.7 447.4 L367.3 450.2 L364.4 451.8 L363.5 454.0 L362.3 454.9 L360.7 453.9 L360.0 454.9 L360.7 457.6 L359.4 457.8 L357.5 460.1 L357.1 461.7 L355.5 462.8 L352.2 463.7 L352.3 463.0 L350.2 463.5 L349.7 464.2 L346.5 464.2 L345.9 465.4 L348.4 468.4 L347.2 468.4 L345.4 469.5 L344.6 469.2 L343.2 470.8 L341.5 471.4 L338.6 473.1 L333.7 473.2 L331.7 475.7 L330.6 475.6 L330.3 474.3 L327.8 474.6 L326.1 476.6 L327.1 477.9 L326.3 479.3 L324.7 480.0 L323.7 481.5 L321.8 482.5 L322.6 484.1 L320.9 484.3 L320.2 483.5 L321.2 478.8 L316.6 480.8 L313.3 480.1 L311.8 481.2 L311.3 482.6 L311.7 483.7 L308.7 486.2 L307.8 487.7 L306.6 488.2 L305.5 486.8 L303.3 484.9 L301.6 486.3 L299.9 485.0 L299.1 485.2 L296.1 486.9 L296.1 488.8 L294.4 488.2 L292.5 489.3 L292.5 491.6 L289.4 491.8 L287.1 492.1 L286.9 493.4 L285.9 493.4 L285.3 492.1 L284.2 494.2 L284.1 493.1 L285.4 491.1 L287.5 491.4 L286.8 489.4 L282.1 488.4 L280.3 489.6 L279.5 489.0 L280.2 486.9 L278.5 488.4 L277.9 487.1 L275.6 488.5 L274.5 488.4 L274.1 487.1 L272.3 487.6 L271.8 486.5 L271.4 486.0 L271.2 485.8 L268.5 483.4 L268.3 482.9 L268.0 481.5 L269.3 478.0 L268.5 476.3 L266.1 475.3 L262.8 475.4 L261.5 474.6 L261.5 470.9 L258.3 468.3 L253.2 465.5 L252.3 463.5 L251.4 460.1 L250.1 459.0 L245.5 457.4 L241.7 454.0 L239.3 453.1 L235.5 453.6 L230.3 452.9 L228.4 451.9 L225.1 448.4 L223.0 447.2 L221.8 445.4 L221.0 442.7 L220.0 441.5 L217.2 440.1 L216.7 438.5 L217.5 435.0 L216.5 434.0 L214.9 433.8 L209.7 436.9 L207.7 437.5 L205.3 437.3 L202.4 435.8 L201.5 432.0 L199.8 429.0 L197.0 426.2 L193.0 423.7 L184.0 412.4 L182.6 410.0 L182.2 406.7 L182.6 403.0 L183.2 400.5 L184.7 398.7 L186.5 397.5 L187.8 397.4 L193.7 400.6 L197.7 403.0 L201.4 404.3 L205.2 402.5 L205.9 401.5 L203.9 399.5 L202.4 397.3 L201.4 393.8 L196.7 391.3 L193.5 388.6 L193.7 383.1 L192.8 380.5 L193.4 374.4 L192.8 371.2 L191.1 368.4 L189.6 367.3 L186.0 365.8 L183.9 365.2 L181.2 365.4 L178.2 365.0 L175.8 363.6 L174.9 362.1 L174.6 360.1 L175.5 358.4 L175.9 355.7 L175.3 352.6 L173.7 347.1 L172.0 342.5 L169.4 338.7 L165.5 336.2 L163.1 335.5 L158.0 335.1 L153.0 336.8 L151.4 336.5 L148.6 334.7 L147.4 335.2 L140.2 340.3 L137.6 342.7 L134.8 344.6 L132.3 345.5 L129.5 345.4 L126.8 344.1 L125.7 342.9 L125.1 341.8 L126.5 337.2 L126.8 334.5 L125.9 328.3 L125.8 325.0 L126.3 320.4 L126.9 317.5 L129.0 311.7 L129.1 309.8 L127.8 304.6 L126.1 295.2 L124.5 289.1 L123.7 287.5 L121.3 286.8 L112.1 286.3 L107.2 286.4 L102.0 284.9 L101.2 284.2 L96.0 279.2 Z" fill="#e7decf" fill-rule="evenodd" stroke="#3d583c" stroke-width="10" stroke-linejoin="round"/>

  <path d="M302.1 452.4 C322.2 452.4, 322.2 229.4, 342.4 229.4" fill="none" stroke="#b85f32" stroke-width="12" stroke-linecap="round" stroke-dasharray="1 28" opacity="0.9"/>
  <circle cx="342.4" cy="229.4" r="44" fill="#fffaf3" stroke="#3d583c" stroke-width="7"/>
  <path d="M322.4 238.4h40v35h-40z" fill="#86a99a"/>
  <path d="M313.4 239.4l29-27 29 27" fill="none" stroke="#3d583c" stroke-width="7" stroke-linecap="round" stroke-linejoin="round"/>
  <circle cx="302.1" cy="452.4" r="15" fill="#b85f32"/>
  <circle cx="342.4" cy="229.4" r="12" fill="#b85f32"/>
  <text x="320" y="574" text-anchor="middle" font-family="system-ui, -apple-system, BlinkMacSystemFont, 'Segoe UI', sans-serif" font-size="24" font-weight="700" fill="#3d583c">Bullitt Co.</text>
</svg>
