<svg xmlns="http://www.w3.org/2000/svg" viewBox="0 0 640 640" role="img" aria-labelledby="title desc">
  <title id="title">Oldham County service area map graphic</title>
  <desc id="desc">Real Oldham County, Kentucky outline map with an access cue toward Louisville care.</desc>
  <path d="M96.0 359.8 L96.2 359.0 L96.8 356.7 L97.2 355.1 L98.8 348.8 L99.5 345.9 L101.3 338.8 L102.2 335.1 L102.2 335.0 L106.0 324.3 L113.4 308.2 L115.9 301.0 L117.9 295.1 L117.6 292.1 L117.8 291.6 L120.7 285.6 L131.5 272.0 L138.2 262.3 L147.5 255.4 L161.4 247.3 L175.5 243.3 L186.5 243.0 L191.2 242.1 L203.9 241.7 L217.1 239.8 L221.8 239.1 L238.8 235.2 L250.3 229.6 L258.2 225.8 L271.5 218.1 L280.9 207.7 L284.2 202.3 L291.7 190.0 L293.8 185.7 L296.0 175.7 L301.5 161.0 L303.9 158.3 L311.6 149.9 L311.9 149.5 L322.4 143.3 L347.8 131.6 L354.4 127.2 L359.6 135.4 L361.2 136.0 L368.2 133.3 L372.0 135.7 L379.7 138.1 L388.0 137.0 L389.4 136.5 L391.9 137.7 L394.0 136.9 L398.6 138.4 L402.1 137.8 L404.3 139.6 L405.8 139.5 L408.0 141.7 L412.8 140.5 L415.1 138.7 L423.2 136.6 L425.1 140.1 L430.7 142.7 L431.9 148.0 L433.0 149.6 L440.4 154.8 L451.2 151.3 L458.0 152.4 L462.9 155.3 L468.4 157.9 L473.5 162.4 L476.1 162.3 L481.2 163.8 L485.9 164.7 L489.5 165.9 L492.6 165.6 L496.6 169.3 L502.9 173.5 L504.2 175.7 L505.0 178.9 L503.6 179.7 L464.4 232.1 L471.0 242.2 L482.5 258.6 L486.3 288.1 L487.0 293.0 L490.9 321.5 L528.2 370.1 L544.0 395.6 L491.6 472.9 L490.8 473.2 L457.2 484.2 L413.9 476.2 L413.3 476.6 L409.8 475.7 L408.6 476.7 L405.5 476.5 L402.1 480.5 L396.9 481.6 L394.2 480.8 L385.5 482.7 L384.0 486.4 L384.4 492.2 L385.7 497.8 L384.3 499.1 L380.7 498.5 L378.4 495.5 L375.2 485.2 L372.1 484.1 L368.9 485.7 L367.0 485.7 L362.7 483.1 L361.6 483.5 L362.7 491.2 L362.4 494.7 L364.3 497.1 L362.7 500.5 L361.0 500.8 L355.8 499.7 L352.5 496.2 L349.1 494.3 L348.0 491.3 L343.6 491.9 L339.4 490.1 L337.0 492.0 L334.8 495.4 L333.0 495.4 L331.3 493.3 L331.4 491.1 L336.0 487.8 L336.6 486.6 L335.6 482.7 L333.7 485.8 L330.1 487.3 L327.8 490.4 L326.9 502.0 L324.6 503.8 L318.8 501.8 L317.0 503.2 L319.7 511.8 L310.2 512.8 L300.1 505.8 L279.6 491.5 L272.3 486.4 L251.7 471.4 L241.5 464.2 L236.0 460.2 L214.6 445.0 L212.8 443.7 L212.5 443.4 L194.4 430.5 L192.7 429.4 L175.7 434.4 L162.4 425.6 L171.1 423.1 L182.4 421.9 L168.4 411.7 L161.7 406.9 L157.2 403.7 L156.4 403.1 L145.4 395.1 L135.3 387.8 L122.2 378.5 L111.8 370.9 L104.9 366.0 L100.0 362.7 L96.0 359.9 Z" fill="#d9e8dd" fill-rule="evenodd" stroke="#3d583c" stroke-width="10" stroke-linejoin="round"/>

  <path d="M445.4 312.3 C311.0 312.3, 311.0 404.8, 176.6 404.8" fill="none" stroke="#b85f32" stroke-width="12" stroke-linecap="round" stroke-dasharray="1 28" opacity="0.9"/>
  <circle cx="176.6" cy="404.8" r="44" fill="#fffaf3" stroke="#3d583c" stroke-width="7"/>
  <path d="M156.6 413.8h40v35h-40z" fill="#86a99a"/>
  <path d="M147.6 414.8l29-27 29 27" fill="none" stroke="#3d583c" stroke-width="7" stroke-linecap="round" stroke-linejoin="round"/>
  <circle cx="445.4" cy="312.3" r="15" fill="#b85f32"/>
  <circle cx="176.6" cy="404.8" r="12" fill="#b85f32"/>
  <text x="320" y="574" text-anchor="middle" font-family="system-ui, -apple-system, BlinkMacSystemFont, 'Segoe UI', sans-serif" font-size="24" font-weight="700" fill="#3d583c">Oldham Co.</text>
</svg>
